<svg xmlns="http://www.w3.org/2000/svg" version="1.1" xmlns:xlink="http://www.w3.org/1999/xlink" xmlns:svgjs="http://svgjs.dev/svgjs" width="2000" height="2000" viewBox="0 0 2000 2000"><g transform="matrix(1,0,0,1,-0.28443113772425477,-0.28443113772459583)"><svg viewBox="0 0 334 334" data-background-color="#ffffff" preserveAspectRatio="xMidYMid meet" height="2000" width="2000" xmlns="http://www.w3.org/2000/svg" xmlns:xlink="http://www.w3.org/1999/xlink"><g id="tight-bounds" transform="matrix(1,0,0,1,0.04749999999998522,0.04750000000001364)"><svg viewBox="0 0 333.90454557049503 333.90454557049503" height="333.90454557049503" width="333.90454557049503"><g><svg></svg></g><g><svg viewBox="0 0 333.90454557049503 333.90454557049503" height="333.90454557049503" width="333.90454557049503"><g><path d="M0 166.952c0-92.205 74.747-166.952 166.952-166.952 92.205 0 166.952 74.747 166.953 166.952 0 92.205-74.747 166.952-166.953 166.953-92.205 0-166.952-74.747-166.952-166.953zM166.952 316.63c82.665 0 149.677-67.013 149.678-149.678 0-82.665-67.013-149.677-149.678-149.677-82.665 0-149.677 67.013-149.677 149.677 0 82.665 67.013 149.677 149.677 149.678z" data-fill-palette-color="tertiary" fill="#471aa0" stroke="transparent"></path><ellipse rx="160.27418187383762" ry="160.27418187383762" cx="166.95227278524752" cy="166.95227278524752" fill="#471aa0" stroke="transparent" stroke-width="0" fill-opacity="1" data-fill-palette-color="tertiary"></ellipse></g><g transform="matrix(1,0,0,1,81.16393053887117,71.17305217166896)"><svg viewBox="0 0 171.5766844927527 191.55844122715712" height="191.55844122715712" width="171.5766844927527"><g><svg viewBox="0 0 171.5766844927527 191.55844122715712" height="191.55844122715712" width="171.5766844927527"><g><svg viewBox="0 0 171.5766844927527 191.55844122715712" height="191.55844122715712" width="171.5766844927527"><g><svg viewBox="0 0 171.5766844927527 191.55844122715712" height="191.55844122715712" width="171.5766844927527"><g id="textblocktransform"><svg viewBox="0 0 171.5766844927527 191.55844122715712" height="191.55844122715712" width="171.5766844927527" id="textblock"><g><svg viewBox="0 0 171.5766844927527 191.55844122715712" height="191.55844122715712" width="171.5766844927527"><g transform="matrix(1,0,0,1,0,0)"><svg width="171.5766844927527" viewBox="-0.3 -35.95 32.199999999999996 35.95" height="191.55844122715712" data-palette-color="#ffffff"><path d="M9.05 0L-0.3 0-0.3-1.65Q1.2-1.65 2-2.45 2.8-3.25 3.33-4.65 3.85-6.05 4.55-7.9L4.55-7.9 14.85-35.95 16.05-35.95 27.2-7.5Q27.6-6.45 28.1-4.8 28.6-3.15 28.5-2L28.5-2Q29.35-2.05 30.2-2.1 31.05-2.15 31.9-2.2L31.9-2.2 31.9 0 20.45 0 20.45-1.65Q22.35-1.7 22.95-2.5 23.55-3.3 23.4-4.4 23.25-5.5 22.9-6.4L22.9-6.4 21.15-11.1 8.15-10.8 6.4-5.45Q6.05-4.25 5.78-3.55 5.5-2.85 5.15-2L5.15-2Q6.15-2.05 7.13-2.1 8.1-2.15 9.05-2.2L9.05-2.2 9.05 0ZM12.45-23L8.9-12.95 20.45-12.95 16.9-22.5Q16.35-24.05 15.78-25.58 15.2-27.1 14.65-28.65L14.65-28.65 14.55-28.65Q14.05-27.25 13.53-25.85 13-24.45 12.45-23L12.45-23Z" opacity="1" transform="matrix(1,0,0,1,0,0)" fill="#ffffff" class="wordmark-text-0" data-fill-palette-color="quaternary" id="text-0"></path></svg></g></svg></g></svg></g></svg></g><g></g></svg></g></svg></g></svg></g></svg></g><defs></defs></svg><rect width="333.90454557049503" height="333.90454557049503" fill="none" stroke="none" visibility="hidden"></rect></g></svg></g></svg>